HIERARCHY
ROOT Hips
{
	OFFSET -0.001795 -0.223333 0.028219
	CHANNELS 6 Xposition Yposition Zposition Zrotation Yrotation Xrotation 
	JOINT LeftUpLeg
	{
		OFFSET 0.069520 -0.091406 -0.006815
		CHANNELS 3 Zrotation Yrotation Xrotation
		JOINT LeftLeg
		{
			OFFSET 0.034277 -0.375199 -0.004496
			CHANNELS 3 Zrotation Yrotation Xrotation
			JOINT LeftFoot
			{
				OFFSET -0.013596 -0.397961 -0.043693
				CHANNELS 3 Zrotation Yrotation Xrotation
				JOINT LeftToe
				{
					OFFSET 0.026358 -0.055791 0.119288
					CHANNELS 3 Zrotation Yrotation Xrotation
					End Site
					{
						OFFSET 0.000000 0.000000 0.000000
					}
				}
			}
		}
	}
	JOINT RightUpLeg
	{
		OFFSET -0.067670 -0.090522 -0.004320
		CHANNELS 3 Zrotation Yrotation Xrotation
		JOINT RightLeg
		{
			OFFSET -0.038290 -0.382569 -0.008850
			CHANNELS 3 Zrotation Yrotation Xrotation
			JOINT RightFoot
			{
				OFFSET 0.015774 -0.398415 -0.042312
				CHANNELS 3 Zrotation Yrotation Xrotation
				JOINT RightToe
				{
					OFFSET -0.025372 -0.048144 0.123348
					CHANNELS 3 Zrotation Yrotation Xrotation
					End Site
					{
						OFFSET 0.000000 0.000000 0.000000
					}
				}
			}
		}
	}
	JOINT Spine
	{
		OFFSET -0.002533 0.108963 -0.026696
		CHANNELS 3 Zrotation Yrotation Xrotation
		JOINT Spine1
		{
			OFFSET 0.005487 0.135180 0.001092
			CHANNELS 3 Zrotation Yrotation Xrotation
			JOINT Spine2
			{
				OFFSET 0.001457 0.052922 0.025425
				CHANNELS 3 Zrotation Yrotation Xrotation
				JOINT Neck
				{
					OFFSET -0.002778 0.213870 -0.042857
					CHANNELS 3 Zrotation Yrotation Xrotation
					JOINT Head
					{
						OFFSET 0.005152 0.064970 0.051349
						CHANNELS 3 Zrotation Yrotation Xrotation
						End Site
						{
							OFFSET 0.000000 0.000000 0.000000
						}
					}
				}
				JOINT LeftShoulder
				{
					OFFSET 0.078845 0.121749 -0.034090
					CHANNELS 3 Zrotation Yrotation Xrotation
					JOINT LeftArm
					{
						OFFSET 0.090977 0.030469 -0.008868
						CHANNELS 3 Zrotation Yrotation Xrotation
						JOINT LeftForeArm
						{
							OFFSET 0.259612 -0.012772 -0.027456
							CHANNELS 3 Zrotation Yrotation Xrotation
							JOINT LeftHand
							{
								OFFSET 0.249234 0.008986 -0.001171
								CHANNELS 3 Zrotation Yrotation Xrotation
								End Site
								{
									OFFSET 0.000000 0.000000 0.000000
								}
							}
						}
					}
				}
				JOINT RightShoulder
				{
					OFFSET -0.081759 0.118833 -0.038615
					CHANNELS 3 Zrotation Yrotation Xrotation
					JOINT RightArm
					{
						OFFSET -0.096012 0.032551 -0.009143
						CHANNELS 3 Zrotation Yrotation Xrotation
						JOINT RightForeArm
						{
							OFFSET -0.253742 -0.013329 -0.021401
							CHANNELS 3 Zrotation Yrotation Xrotation
							JOINT RightHand
							{
								OFFSET -0.255298 0.007772 -0.005559
								CHANNELS 3 Zrotation Yrotation Xrotation
								End Site
								{
									OFFSET 0.000000 0.000000 0.000000
								}
							}
						}
					}
				}
			}
		}
	}
}
MOTION
Frames: 12
Frame Time: 0.050000
0.000000 0.948657 0.000000 0.333334 1.667101 3.726142 3.100577 -0.107278 -0.518669 2.172055 -0.037874 -3.605462 0.814129 6.121052 11.901255 0.000000 0.000000 0.000000 -2.652840 0.258060 -2.335982 -0.129109 0.151834 3.492045 -3.300717 -11.436069 14.477401 0.000000 0.000000 0.000000 5.561934 0.109883 -2.602235 -1.872952 0.901659 -1.317668 -5.197059 2.413762 1.598062 6.133386 -3.519685 -7.240512 0.000000 0.000000 0.000000 -20.250041 -3.188920 -1.529027 -52.167506 -2.126830 -4.750707 -5.093047 -19.739974 1.440976 0.000000 0.000000 0.000000 18.626874 -6.144059 -4.126441 61.095828 1.455177 -4.831114 5.016366 26.644379 2.243034 0.000000 0.000000 0.000000 
0.000279 0.947546 0.000879 0.274810 1.148530 4.238185 3.026996 -0.095309 -0.337282 2.299822 0.007033 -4.645753 1.084803 6.498927 11.909053 0.000000 0.000000 0.000000 -3.042988 0.317086 -3.008483 0.517820 0.069790 3.666771 -3.112864 -11.097275 14.058608 0.000000 0.000000 0.000000 6.974932 0.142163 -3.012635 -2.959253 1.395873 -1.302455 -6.427871 2.916137 0.936996 6.536150 -3.621134 -7.977615 0.000000 0.000000 0.000000 -20.690887 -2.985085 -1.870664 -51.254897 -1.975141 -4.597833 -4.358965 -19.164340 1.253664 0.000000 0.000000 0.000000 18.677183 -7.484201 -4.769694 62.494167 0.092682 -5.533184 4.819938 26.399715 2.201510 0.000000 0.000000 0.000000 
0.000318 0.947392 0.001332 0.682533 1.387342 4.304773 2.769571 -0.108150 -0.598162 2.000939 0.011123 -4.325480 0.956665 6.304103 11.858283 0.000000 0.000000 0.000000 -3.448711 0.318903 -3.031445 0.500105 0.073377 3.730054 -3.277495 -11.334665 13.919468 0.000000 0.000000 0.000000 6.507492 0.137680 -3.003545 -2.804123 1.326537 -2.370794 -6.658681 2.211621 1.509570 5.391597 -2.960067 -7.413788 0.000000 0.000000 0.000000 -20.576882 -3.285978 -1.521270 -51.387784 -1.784912 -4.779055 -3.644804 -18.233268 1.107697 0.000000 0.000000 0.000000 19.634343 -6.402909 -4.395860 61.196914 -0.046630 -5.618012 5.124476 25.435305 2.140044 0.000000 0.000000 0.000000 
0.000194 0.947857 0.001883 0.805385 1.538388 4.315045 2.775112 -0.112154 -0.644610 1.792413 0.021818 -4.246609 0.842746 6.174382 11.986610 0.000000 0.000000 0.000000 -3.611960 0.337297 -3.303910 0.608546 0.075874 4.298362 -3.356577 -11.477884 14.049664 0.000000 0.000000 0.000000 6.778883 0.148682 -3.123498 -3.198861 1.505136 -1.690778 -6.784697 1.712762 0.324420 5.184217 -2.959799 -6.501510 0.000000 0.000000 0.000000 -20.667283 -2.858363 -1.717220 -51.825466 -1.613634 -4.804490 -2.217727 -18.188935 0.879448 0.000000 0.000000 0.000000 18.631694 -6.646492 -4.516573 61.906934 -0.830355 -5.922179 5.767247 25.335171 2.220580 0.000000 0.000000 0.000000 
-0.000067 0.948381 0.002324 0.940705 1.907505 4.236645 2.597435 -0.091692 -0.379120 1.938779 0.031522 -4.621757 0.585097 5.872827 12.223989 0.000000 0.000000 0.000000 -3.624812 0.325753 -3.183121 0.494487 0.093772 4.391135 -3.519056 -11.752796 14.253641 0.000000 0.000000 0.000000 6.404556 0.125932 -2.896597 -2.885193 1.364770 -1.853306 -6.985420 1.370046 0.366603 4.570597 -2.544707 -6.397992 0.000000 0.000000 0.000000 -20.918874 -2.964657 -1.668427 -51.549914 -1.886427 -4.657506 -2.296919 -17.887293 0.881903 0.000000 0.000000 0.000000 18.644714 -6.475452 -4.444248 61.722019 -0.937769 -5.965238 5.652485 24.507979 2.107548 0.000000 0.000000 0.000000 
-0.000306 0.948814 0.002712 1.066771 1.919933 4.203021 2.486244 -0.083286 -0.296686 1.918080 0.034840 -4.661442 0.531909 5.841350 12.395580 0.000000 0.000000 0.000000 -3.689312 0.329872 -3.251777 0.399459 0.115720 4.629937 -3.527176 -11.780097 14.344991 0.000000 0.000000 0.000000 6.346001 0.126181 -2.891338 -2.941291 1.390401 -1.840460 -7.011278 1.158339 0.409905 4.381893 -2.432647 -6.320124 0.000000 0.000000 0.000000 -21.298450 -2.984327 -1.652082 -51.233119 -2.067215 -4.551127 -2.060341 -17.973392 0.856195 0.000000 0.000000 0.000000 18.215537 -6.178102 -4.273095 62.078926 -1.061575 -6.059851 5.457192 24.027118 2.008696 0.000000 0.000000 0.000000 
-0.000437 0.948995 0.002979 1.074989 1.992001 4.086916 2.391636 -0.072292 -0.175725 2.097024 0.022419 -4.641672 0.486297 5.787922 12.428649 0.000000 0.000000 0.000000 -3.526693 0.315607 -3.066519 0.131629 0.153605 4.577737 -3.557770 -11.834347 14.401733 0.000000 0.000000 0.000000 6.171609 0.110482 -2.699625 -2.836270 1.344008 -1.873412 -7.116268 0.874924 0.455463 4.408924 -2.372465 -6.903645 0.000000 0.000000 0.000000 -21.296048 -2.827034 -1.676243 -51.235639 -1.895965 -4.640707 -2.552720 -18.195058 0.950472 0.000000 0.000000 0.000000 18.045423 -6.192953 -4.304985 62.296622 -1.347351 -6.233904 5.583487 23.957398 2.014808 0.000000 0.000000 0.000000 
-0.000466 0.949033 0.003256 1.046318 2.137742 4.085546 2.295131 -0.069701 -0.165124 2.353881 0.007763 -4.669449 0.420120 5.698508 12.423015 0.000000 0.000000 0.000000 -3.498388 0.314034 -3.057364 0.179264 0.147771 4.633247 -3.622469 -11.936296 14.454017 0.000000 0.000000 0.000000 6.202055 0.113638 -2.740862 -2.902373 1.374568 -1.938362 -7.152600 0.645620 0.664145 4.252874 -2.277938 -6.874456 0.000000 0.000000 0.000000 -21.380145 -2.898518 -1.596002 -50.882929 -1.706734 -4.706695 -3.410065 -18.676922 1.120629 0.000000 0.000000 0.000000 18.020747 -6.285034 -4.378651 62.288829 -1.518816 -6.346696 5.688391 23.782670 2.013065 0.000000 0.000000 0.000000 
-0.000450 0.949079 0.003623 1.082730 2.212559 3.982225 2.221891 -0.056750 -0.010776 2.425540 0.005969 -4.719122 0.371814 5.633787 12.434184 0.000000 0.000000 0.000000 -3.507740 0.296055 -2.817721 0.141843 0.147500 4.476090 -3.646272 -11.972129 14.473869 0.000000 0.000000 0.000000 6.169665 0.111927 -2.703148 -2.904329 1.376131 -1.886656 -7.225340 0.577456 0.640629 4.030929 -2.120554 -6.884397 0.000000 0.000000 0.000000 -21.161071 -2.909611 -1.560961 -51.123522 -1.748267 -4.719714 -4.070075 -18.890098 1.240180 0.000000 0.000000 0.000000 17.925031 -6.420028 -4.440557 62.363822 -1.754863 -6.472725 5.858292 23.825739 2.049287 0.000000 0.000000 0.000000 
-0.000475 0.949019 0.004229 1.108215 2.399604 3.773297 2.152395 -0.042977 0.152302 2.539844 -0.008367 -4.583712 0.289178 5.495976 12.341869 0.000000 0.000000 0.000000 -3.497438 0.267970 -2.458147 0.125132 0.145551 4.372206 -3.723572 -12.085908 14.475638 0.000000 0.000000 0.000000 6.198984 0.115824 -2.706988 -2.925809 1.387360 -1.787476 -7.341592 0.499157 0.740873 3.738819 -1.902426 -6.971060 0.000000 0.000000 0.000000 -21.068985 -3.036000 -1.489196 -51.140312 -1.894431 -4.670156 -4.754740 -19.093570 1.365482 0.000000 0.000000 0.000000 18.028198 -6.469844 -4.467952 62.369716 -1.868071 -6.547477 5.901287 23.881203 2.067736 0.000000 0.000000 0.000000 
-0.000529 0.948854 0.005020 1.118983 2.633611 3.672889 2.248590 -0.039411 0.247072 2.404538 -0.001907 -4.529027 0.183606 5.318775 12.233130 0.000000 0.000000 0.000000 -3.523606 0.256351 -2.323760 0.220848 0.134399 4.490530 -3.837959 -12.256603 14.461302 0.000000 0.000000 0.000000 6.189579 0.129757 -2.849545 -2.824836 1.342376 -1.659771 -7.496585 0.445672 0.773798 3.588992 -1.795066 -6.956965 0.000000 0.000000 0.000000 -20.981054 -3.098973 -1.471545 -51.258931 -2.015339 -4.632083 -5.313040 -19.087372 1.453861 0.000000 0.000000 0.000000 17.963521 -6.631508 -4.523651 62.467748 -2.053321 -6.653924 6.045553 23.579697 2.070087 0.000000 0.000000 0.000000 
-0.000625 0.948602 0.005908 1.164584 3.087224 3.665988 2.343634 -0.039939 0.306704 2.250497 0.015253 -4.641812 -0.038019 4.982210 12.136528 0.000000 0.000000 0.000000 -3.545994 0.231265 -2.006050 0.302616 0.109749 4.179310 -4.047444 -12.573461 14.485977 0.000000 0.000000 0.000000 6.050763 0.148584 -3.083053 -2.639449 1.257434 -1.405298 -7.564853 0.335510 0.490383 3.377265 -1.637786 -6.937064 0.000000 0.000000 0.000000 -20.861168 -3.056614 -1.535946 -51.455439 -2.051267 -4.602252 -5.723382 -18.641892 1.477896 0.000000 0.000000 0.000000 17.647930 -6.980685 -4.643104 62.506992 -2.470916 -6.826646 6.377379 23.569060 2.135724 0.000000 0.000000 0.000000 
